<?xml version="1.0" encoding="UTF-8"?>
<svg version="1.1" xmlns="http://www.w3.org/2000/svg" width="500" height="500">
<path d="M0 0 C165 0 330 0 500 0 C500 165 500 330 500 500 C335 500 170 500 0 500 C0 335 0 170 0 0 Z " fill="#FEFEFE" transform="translate(0,0)"/>
<path d="M0 0 C36.3 0 72.6 0 110 0 C110 13.2 110 26.4 110 40 C107.4425 41.340625 104.885 42.68125 102.25 44.0625 C92.30833567 49.28396614 82.41226598 54.58962619 72.52246094 59.90844727 C71.37422852 60.52518311 70.22599609 61.14191895 69.04296875 61.77734375 C68.02227295 62.32640381 67.00157715 62.87546387 65.94995117 63.44116211 C64.48972534 64.21278687 64.48972534 64.21278687 63 65 C62.00911377 65.58209229 61.01822754 66.16418457 59.99731445 66.76391602 C56.32028156 68.28031396 54.79300187 68.12376404 51 67 C48.37105254 65.82781739 45.86081415 64.6187693 43.3203125 63.28125 C42.58988739 62.9044812 41.85946228 62.5277124 41.10690308 62.13952637 C39.56014857 61.33972285 38.01543429 60.53596289 36.47265625 59.72851562 C34.17096529 58.52405338 31.86357507 57.33122254 29.5546875 56.140625 C28.03870382 55.35485829 26.52306874 54.56841859 25.0078125 53.78125 C24.34363312 53.4371106 23.67945374 53.09297119 22.99514771 52.73840332 C15.2250547 48.66611388 7.65697571 44.30704883 0 40 C0 26.8 0 13.6 0 0 Z " fill="#B4975B" transform="translate(195,348)"/>
<path d="M0 0 C1.76049805 1.21240234 1.76049805 1.21240234 3 3 C3.05786133 5.36962891 3.05786133 5.36962891 2.76953125 8.1015625 C2.58589302 14.94462127 5.33640506 18.35885258 9.6875 23.375 C10.31333984 24.14199219 10.93917969 24.90898438 11.58398438 25.69921875 C17.62326777 33.81853814 17.62326777 33.81853814 26.1015625 38.34375 C31.26740906 38.66361666 34.32124183 38.32648801 38.3125 34.875 C41.43377395 31.76638842 44.29068184 28.4713139 47 25 C46.505 24.01 46.505 24.01 46 23 C45.64127355 19.12575435 45.43289271 16.85066094 47.625 13.5625 C50.75683492 11.50208229 52.31544773 11.3232455 56 12 C59.0099077 14.29014716 60.69783903 15.79135614 61.625 19.5 C61 22 61 22 58.59423828 24.18115234 C55.56379066 27.47397638 54.73324308 30.34716351 53.8671875 34.6015625 C53.7038089 35.31984222 53.5404303 36.03812195 53.37210083 36.77816772 C52.85567954 39.05698158 52.36352816 41.34005782 51.875 43.625 C51.37678061 45.91632783 50.87321506 48.20603031 50.35647583 50.49325562 C50.03670337 51.91197792 49.72784589 53.3332164 49.43136597 54.75698853 C48.61745538 58.40382552 47.97629839 60.68794134 45 63 C43.08473682 63.36914349 43.08473682 63.36914349 40.8808136 63.36076355 C39.62512573 63.36694954 39.62512573 63.36694954 38.34407043 63.3732605 C37.42913315 63.36247467 36.51419586 63.35168884 35.5715332 63.34057617 C34.60549164 63.34101425 33.63945007 63.34145233 32.64413452 63.34190369 C29.44614559 63.3398111 26.24867877 63.31645761 23.05078125 63.29296875 C20.83546739 63.28737447 18.62014983 63.28310358 16.40483093 63.28010559 C10.57023903 63.26864361 4.73587068 63.23916462 -1.09863281 63.20599365 C-7.05075048 63.17532203 -13.00290423 63.16160647 -18.95507812 63.14648438 C-30.63681704 63.11429635 -42.31838994 63.06308353 -54 63 C-56.1965935 58.74380696 -57.64206114 54.97195374 -58.6484375 50.28125 C-58.93203125 49.01925781 -59.215625 47.75726563 -59.5078125 46.45703125 C-59.94451562 44.47714687 -60.37575512 42.49644375 -60.796875 40.51318359 C-62.95651816 30.24499213 -62.95651816 30.24499213 -69 22 C-69.6746862 18.25174332 -69.5268901 16.77007015 -67.375 13.625 C-64.26965639 11.50029121 -62.6986604 11.39613708 -59 12 C-56.125 13.5625 -56.125 13.5625 -54 16 C-53.6875 19.5 -53.6875 19.5 -54 23 C-54.42655732 27.03915125 -54.42655732 27.03915125 -51.8828125 29.54296875 C-50.97273438 30.41566406 -50.06265625 31.28835937 -49.125 32.1875 C-48.22007812 33.06792969 -47.31515625 33.94835937 -46.3828125 34.85546875 C-43.32157624 37.61058138 -41.76929321 38.16797361 -37.75 38.25 C-36.62851563 38.28867188 -36.62851563 38.28867188 -35.484375 38.328125 C-28.40130087 37.39262464 -24.942674 33.04843381 -20.73632812 27.7109375 C-19.6602832 26.30714844 -19.6602832 26.30714844 -18.5625 24.875 C-17.81806641 23.96234375 -17.07363281 23.0496875 -16.30664062 22.109375 C-12.40034189 17.26184384 -12.40034189 17.26184384 -10.80395508 11.42114258 C-11.06488112 9.04175969 -11.06488112 9.04175969 -11.65576172 6.88549805 C-12 5 -12 5 -10.5625 1.9375 C-6.78695925 -0.91717716 -4.67107179 -0.59315197 0 0 Z " fill="#B5985C" transform="translate(254,84)"/>
<path d="M0 0 C0.92055679 0.00202423 1.84111359 0.00404846 2.78956604 0.00613403 C3.75370926 0.00438171 4.71785248 0.00262939 5.71121216 0.00082397 C8.91508252 -0.00359636 12.11889819 -0.00065591 15.32276917 0.00271606 C17.5385489 0.00204308 19.75432856 0.0010731 21.97010803 -0.00018311 C26.62070924 -0.00166033 31.27129128 0.00049525 35.92189026 0.00515747 C41.89784521 0.01085477 47.87375526 0.00757589 53.84970856 0.00158501 C58.4271631 -0.00201996 63.00460691 -0.00088232 67.58206177 0.0017128 C69.7861939 0.00238225 71.99032699 0.00155303 74.19445801 -0.00076675 C77.26915588 -0.00329222 80.34377994 0.00054581 83.41847229 0.00613403 C84.33902908 0.0041098 85.25958588 0.00208557 86.20803833 0 C92.48975688 0.02126628 92.48975688 0.02126628 93.60401917 1.13552856 C93.72916845 3.11172304 93.77974676 5.0929103 93.79151917 7.07302856 C93.80569885 8.154552 93.81987854 9.23607544 93.83448792 10.35037231 C93.60401917 13.13552856 93.60401917 13.13552856 91.60401917 15.13552856 C88.50531067 15.32927482 85.49625073 15.3976392 82.39674377 15.37844849 C81.4422081 15.38034683 80.48767242 15.38224518 79.50421143 15.38420105 C76.33817929 15.38791623 73.17237478 15.37719478 70.00636292 15.36599731 C67.81443305 15.36480591 65.62250268 15.36435227 63.43057251 15.36460876 C58.83300082 15.36304266 54.23550685 15.35474273 49.63795471 15.34133911 C43.73040392 15.32433911 37.82293856 15.32052498 31.91536617 15.32128429 C27.38852109 15.32101302 22.86169486 15.31553878 18.33485603 15.30828285 C16.15584519 15.30509003 13.9768322 15.30312735 11.79781914 15.30238914 C8.75914201 15.30023262 5.72055743 15.29150367 2.68190002 15.28079224 C1.77226501 15.28124542 0.86263 15.28169861 -0.0745697 15.28216553 C-6.28150692 15.25000248 -6.28150692 15.25000248 -7.39598083 14.13552856 C-7.49491023 11.9707206 -7.52569184 9.80259071 -7.52098083 7.63552856 C-7.52355896 6.44959106 -7.52613708 5.26365356 -7.52879333 4.04177856 C-7.28628573 -1.26485834 -4.68247159 0.01585215 0 0 Z " fill="#B4975A" transform="translate(207.39598083496094,154.86447143554688)"/>
<path d="M0 0 C3.93724069 -0.11786788 7.87401761 -0.18780174 11.8125 -0.25 C13.46282227 -0.30027344 13.46282227 -0.30027344 15.14648438 -0.3515625 C22.99060295 -0.44411847 31.45026186 0.15650147 37.71435547 5.44824219 C43.10016284 11.64748008 43.6031546 17.29945367 43.3828125 25.28515625 C42.72598161 31.65909684 40.08046388 34.91953612 35.6875 39.3125 C27.86316442 44.2254549 21.02979162 44.38919638 12 44.1875 C10.84371094 44.17396484 9.68742188 44.16042969 8.49609375 44.14648438 C5.66356996 44.11137044 2.83203693 44.06219 0 44 C0.97791504 43.52373169 0.97791504 43.52373169 1.97558594 43.0378418 C4.57962708 40.41652832 4.45461272 38.4579245 4.45318604 34.8664093 C4.43254089 34.05068954 4.41189575 33.23496979 4.390625 32.39453125 C4.38496521 31.55532639 4.37930542 30.71612152 4.37347412 29.85148621 C4.35108406 27.17124367 4.30088453 24.49233837 4.25 21.8125 C4.22993832 19.99546202 4.21168697 18.17840308 4.1953125 16.36132812 C4.15121086 11.90703688 4.08216659 7.45374515 4 3 C2.68 2.67 1.36 2.34 0 2 C0 1.34 0 0.68 0 0 Z " fill="#105229" transform="translate(122,256)"/>
<path d="M0 0 C4.02069425 -0.08765069 8.0411401 -0.14061018 12.0625 -0.1875 C13.7630957 -0.22520508 13.7630957 -0.22520508 15.49804688 -0.26367188 C23.11601836 -0.33030136 28.68882997 -0.14136644 34.4375 5.3125 C36.35974999 8.61876998 36.61558356 10.22955067 36 14 C33.67773363 18.38650314 31.43658969 20.78170516 27 23 C27.78375 23.433125 28.5675 23.86625 29.375 24.3125 C33.76159595 27.13245454 34.4759316 30.33007449 35.625 35.1875 C35.88539063 36.27417969 36.14578125 37.36085938 36.4140625 38.48046875 C36.70410156 39.72763672 36.70410156 39.72763672 37 41 C38.32 41 39.64 41 41 41 C41 41.66 41 42.32 41 43 C37.1783948 44.79840245 34.2177461 45.61508797 30 45 C25.46423896 41.34943287 24.25156259 38.48874459 23.3125 32.8125 C22.7011221 27.87944906 22.7011221 27.87944906 20 24 C18.02 23.67 16.04 23.34 14 23 C14.33 28.94 14.66 34.88 15 41 C16.32 41.66 17.64 42.32 19 43 C19 43.33 19 43.66 19 44 C12.73 44 6.46 44 0 44 C0.99 43.01 1.98 42.02 3 41 C3.26167679 38.05815259 3.34873921 35.3326279 3.29296875 32.39453125 C3.28872391 31.55532639 3.28447906 30.71612152 3.28010559 29.85148621 C3.26331464 27.17149755 3.2256623 24.4922613 3.1875 21.8125 C3.17245367 19.99545357 3.15876518 18.17839535 3.14648438 16.36132812 C3.11340982 11.90726224 3.06162513 7.45375868 3 3 C2.01 2.67 1.02 2.34 0 2 C0 1.34 0 0.68 0 0 Z " fill="#1A5932" transform="translate(262,256)"/>
<path d="M0 0 C5.28 0 10.56 0 16 0 C16.78246094 1.93746094 17.56492188 3.87492188 18.37109375 5.87109375 C19.12880469 7.74104094 19.88653331 9.61098101 20.64477539 11.48071289 C21.17238314 12.78307694 21.69907915 14.08581073 22.22485352 15.38891602 C22.97954912 17.25893934 23.73776804 19.12753954 24.49609375 20.99609375 C24.95169678 22.12200928 25.4072998 23.2479248 25.87670898 24.40795898 C26.76079613 26.88334172 26.76079613 26.88334172 28 28 C31.63 18.76 35.26 9.52 39 0 C43.62 0 48.24 0 53 0 C53 0.66 53 1.32 53 2 C52.01 2.33 51.02 2.66 50 3 C49.67 15.87 49.34 28.74 49 42 C50.32 42.66 51.64 43.32 53 44 C46.73 44 40.46 44 34 44 C35.32 43.01 36.64 42.02 38 41 C38.35711867 38.42202563 38.46813593 36.27685887 38.390625 33.70703125 C38.38213531 32.64798836 38.38213531 32.64798836 38.37347412 31.56755066 C38.35110411 29.31517374 38.30091199 27.06439497 38.25 24.8125 C38.22993556 23.28452821 38.21168468 21.75653144 38.1953125 20.22851562 C38.15123802 16.48506244 38.08221074 12.74280205 38 9 C37.61666504 9.98919434 37.23333008 10.97838867 36.83837891 11.99755859 C35.41612652 15.66354208 33.98695413 19.32679446 32.55566406 22.98925781 C31.93690617 24.5754336 31.32003296 26.16234591 30.70507812 27.75 C29.82134344 30.03060563 28.93088725 32.30848536 28.0390625 34.5859375 C27.76502594 35.29744965 27.49098938 36.00896179 27.20864868 36.74203491 C26.06907879 39.63580739 25.22376223 41.77623777 23 44 C17.12987456 31.8822491 12.01461289 19.49287479 7 7 C6.97531143 11.5206665 6.95714551 16.0412939 6.94506836 20.56201172 C6.94003448 22.10043013 6.93320692 23.63884375 6.92456055 25.17724609 C6.91245361 27.38640526 6.90676231 29.59550126 6.90234375 31.8046875 C6.89718246 32.49432587 6.89202118 33.18396423 6.88670349 33.89450073 C6.83681836 37.57059655 6.83681836 37.57059655 8 41 C10.02463255 41.65213292 10.02463255 41.65213292 12 42 C12 42.66 12 43.32 12 44 C8.04 44 4.08 44 0 44 C1.32 42.68 2.64 41.36 4 40 C4.34898973 37.04071721 4.46784199 34.46546479 4.390625 31.515625 C4.38213531 30.29223419 4.38213531 30.29223419 4.37347412 29.04412842 C4.35112727 26.44548228 4.30093622 23.84822758 4.25 21.25 C4.22993271 19.48569703 4.21168234 17.7213724 4.1953125 15.95703125 C4.1512683 11.63748672 4.08225422 7.31897907 4 3 C2.68 2.67 1.36 2.34 0 2 C0 1.34 0 0.68 0 0 Z " fill="#0C5026" transform="translate(175,205)"/>
<path d="M0 0 C4.66854475 4.18038893 8.6115184 8.75311169 9.37109375 15.1015625 C9.52434281 23.23277743 8.7914373 29.28142813 4 36 C-0.93847479 41.06843465 -6.49314951 43.15895759 -13.4375 43.4375 C-19.49466459 43.24639604 -24.0640137 41.73376275 -28.53125 37.57421875 C-34.34416417 31.03469031 -34.60726801 24.2158646 -34.37109375 15.89453125 C-33.76670204 9.55159927 -31.66752924 6.39285296 -27.02734375 2.23046875 C-18.9793095 -4.1929156 -9.18533288 -4.98773452 0 0 Z M-22 5 C-24.42425747 9.65218422 -24.38448419 14.11855258 -24.375 19.25 C-24.37411377 20.09884766 -24.37322754 20.94769531 -24.37231445 21.82226562 C-24.23952771 28.82693499 -23.09643516 34.15614946 -18.640625 39.6875 C-15.95873439 41.83301249 -13.47446745 41.52960933 -10.15625 41.421875 C-7.72649528 41.14222132 -7.72649528 41.14222132 -5.5625 38.75 C-4.7890625 37.38875 -4.7890625 37.38875 -4 36 C-3.608125 35.360625 -3.21625 34.72125 -2.8125 34.0625 C0.33678404 26.06816359 0.59209677 14.7780759 -2.75 6.875 C-5.18328216 2.33722517 -5.18328216 2.33722517 -9 -1 C-15.84798868 -2.08698233 -18.12443379 -1.0413238 -22 5 Z " fill="#0E5127" transform="translate(400,207)"/>
<path d="M0 0 C10.89 0 21.78 0 33 0 C33 4.29 33 8.58 33 13 C31 12 31 12 30.21875 10.1875 C29.73958333 8.72916667 29.26041667 7.27083333 28.78125 5.8125 C28.14670555 3.80487204 28.14670555 3.80487204 26 3 C24.29297265 2.93003986 22.58331997 2.91559846 20.875 2.9375 C19.26625 2.958125 17.6575 2.97875 16 3 C15.67 8.94 15.34 14.88 15 21 C21.03389538 19.71180306 21.03389538 19.71180306 22.875 15.875 C23.24625 14.92625 23.6175 13.9775 24 13 C24.66 13 25.32 13 26 13 C26 18.94 26 24.88 26 31 C25.34 31 24.68 31 24 31 C23.34 28.69 22.68 26.38 22 24 C19.69 23.67 17.38 23.34 15 23 C15 29.27 15 35.54 15 42 C17.8771875 41.8453125 17.8771875 41.8453125 20.8125 41.6875 C21.89144531 41.62949219 22.97039062 41.57148438 24.08203125 41.51171875 C27.25573482 40.95515226 28.16789317 40.5837404 30 38 C30.98628417 35.96922316 30.98628417 35.96922316 31.6875 33.8125 C32.06455078 32.73935547 32.06455078 32.73935547 32.44921875 31.64453125 C32.63097656 31.10183594 32.81273437 30.55914062 33 30 C33.33 30 33.66 30 34 30 C34 34.62 34 39.24 34 44 C22.78 44 11.56 44 0 44 C1 42 1 42 4 41 C4 28.46 4 15.92 4 3 C2.68 2.67 1.36 2.34 0 2 C0 1.34 0 0.68 0 0 Z " fill="#04491E" transform="translate(304,256)"/>
<path d="M0 0 C10.89 0 21.78 0 33 0 C33 4.62 33 9.24 33 14 C32.34 14 31.68 14 31 14 C30.36523438 11.02148438 30.36523438 11.02148438 29.73046875 8.04296875 C28.84960953 5.57938922 28.12847267 4.53100666 26 3 C23.26769695 2.42224116 23.26769695 2.42224116 20.3125 2.3125 C18.559375 2.209375 16.80625 2.10625 15 2 C15 8.27 15 14.54 15 21 C21.03389538 19.71180306 21.03389538 19.71180306 22.875 15.875 C23.24625 14.92625 23.6175 13.9775 24 13 C24.33 13 24.66 13 25 13 C25 18.94 25 24.88 25 31 C23.87168106 29.30752159 22.75640817 27.60561322 21.6875 25.875 C19.84375066 23.45077371 19.84375066 23.45077371 15 23 C15 29.27 15 35.54 15 42 C22.09448453 41.91305489 22.09448453 41.91305489 28.5 39.4375 C30.56262451 36.08573517 31.75484918 32.73545246 33 29 C33.33 29 33.66 29 34 29 C34 33.95 34 38.9 34 44 C22.78 44 11.56 44 0 44 C1.32 43.01 2.64 42.02 4 41 C4.35519237 38.00511724 4.46627491 35.38357009 4.390625 32.39453125 C4.38496521 31.55532639 4.37930542 30.71612152 4.37347412 29.85148621 C4.35108406 27.17124367 4.30088453 24.49233837 4.25 21.8125 C4.22993832 19.99546202 4.21168697 18.17840308 4.1953125 16.36132812 C4.15121086 11.90703688 4.08216659 7.45374515 4 3 C2.68 2.67 1.36 2.34 0 2 C0 1.34 0 0.68 0 0 Z " fill="#094D23" transform="translate(170,256)"/>
<path d="M0 0 C3.82622467 -0.63301511 7.18597413 -0.78314664 11 0 C14.40580059 2.75830998 16.5354957 6.40788888 19 10 C21.26748413 12.89126853 23.60294555 15.72528421 25.9375 18.5625 C27.07201485 19.95931041 28.20615754 21.35642322 29.33984375 22.75390625 C31.09791012 24.9421998 31.09791012 24.9421998 33 27 C33 19.41 33 11.82 33 4 C31.35 3.34 29.7 2.68 28 2 C28 1.34 28 0.68 28 0 C31.96 0 35.92 0 40 0 C40 0.66 40 1.32 40 2 C39.01 2 38.02 2 37 2 C36.67 15.86 36.34 29.72 36 44 C30.31585508 42.86317102 29.06142387 41.19405187 25.875 36.8125 C24.91579863 35.54133902 23.95614943 34.27051587 22.99609375 33 C22.50608887 32.34257812 22.01608398 31.68515625 21.51123047 31.0078125 C19.04446775 27.7304851 16.48681672 24.52572786 13.9375 21.3125 C11.52559943 18.26481074 9.15800684 15.23701026 7 12 C6.87631409 15.93245085 6.78562664 19.86414798 6.7253418 23.7980957 C6.68785626 25.79353555 6.62432465 27.78843052 6.56054688 29.78320312 C6.54443359 31.03681641 6.52832031 32.29042969 6.51171875 33.58203125 C6.48553467 34.73936768 6.45935059 35.8967041 6.43237305 37.08911133 C6.69990084 40.22114292 6.69990084 40.22114292 9.53051758 41.83862305 C10.75291138 42.41350464 10.75291138 42.41350464 12 43 C12 43.33 12 43.66 12 44 C8.04 44 4.08 44 0 44 C0 43.34 0 42.68 0 42 C1.485 41.505 1.485 41.505 3 41 C3 28.46 3 15.92 3 3 C2.01 2.67 1.02 2.34 0 2 C0 1.34 0 0.68 0 0 Z " fill="#074C21" transform="translate(256,205)"/>
<path d="M0 0 C1.6052413 -0.04230752 3.21080382 -0.07254854 4.81640625 -0.09765625 C5.71045166 -0.11578369 6.60449707 -0.13391113 7.52563477 -0.15258789 C10 0 10 0 12.9375 1.5625 C17.7347187 7.23194028 18.50403149 12.77024383 18.4375 19.9375 C18.4674707 21.07735352 18.4674707 21.07735352 18.49804688 22.24023438 C18.49260084 28.61754453 16.77809417 33.80676138 12.55249023 38.66381836 C9.12116251 41.61705891 5.29420052 41.15904446 1 41 C0 40 0 40 -0.11352539 36.21459961 C-0.11336622 34.52717271 -0.10766917 32.83974095 -0.09765625 31.15234375 C-0.0962413 30.2659169 -0.09482635 29.37949005 -0.09336853 28.46620178 C-0.08775215 25.62326746 -0.07519691 22.78041069 -0.0625 19.9375 C-0.05748711 18.01497509 -0.05292384 16.09244896 -0.04882812 14.16992188 C-0.03777741 9.44658451 -0.02050183 4.72330542 0 0 Z " fill="#FBFCFB" transform="translate(137,258)"/>
<path d="M0 0 C12.54 0 25.08 0 38 0 C38 4.95 38 9.9 38 15 C37.34 15 36.68 15 36 15 C35.81824219 14.38511719 35.63648438 13.77023438 35.44921875 13.13671875 C35.19785156 12.32847656 34.94648438 11.52023438 34.6875 10.6875 C34.44386719 9.88699219 34.20023437 9.08648437 33.94921875 8.26171875 C32.9010838 5.76431078 32.19975241 4.57818881 30 3 C27.03 2.505 27.03 2.505 24 2 C24.495 21.8 24.495 21.8 25 42 C26.98 42.33 28.96 42.66 31 43 C31 43.33 31 43.66 31 44 C23.41 44 15.82 44 8 44 C9.32 43.34 10.64 42.68 12 42 C14.10669459 39.89330541 13.25892489 35.28743711 13.31640625 32.37109375 C13.33718735 31.50686295 13.35796844 30.64263214 13.37937927 29.75221252 C13.44497114 26.98072555 13.50380418 24.20914079 13.5625 21.4375 C13.60567608 19.56314077 13.64929006 17.68879157 13.69335938 15.81445312 C13.80066227 11.20973664 13.90190215 6.60492142 14 2 C8.9838045 3.05922942 8.9838045 3.05922942 5.1875 6.1875 C3.82947002 9.40388678 2.86188681 12.61875175 2 16 C1.34 16 0.68 16 0 16 C0 10.72 0 5.44 0 0 Z " fill="#064B20" transform="translate(323,205)"/>
<path d="M0 0 C6.27 0 12.54 0 19 0 C19 0.66 19 1.32 19 2 C17.68 2 16.36 2 15 2 C16.90068174 6.9336845 18.82849507 11.79536186 21.25 16.5 C23 20 23 20 23 22 C23.66 22 24.32 22 25 22 C25.268125 21.154375 25.53625 20.30875 25.8125 19.4375 C27 16 27 16 28.625 12.5 C29.9961819 9.00971879 30.2708276 6.7013105 30 3 C28.68 2.67 27.36 2.34 26 2 C26 1.34 26 0.68 26 0 C30.29 0 34.58 0 39 0 C39 0.66 39 1.32 39 2 C38.25363281 2.7425 37.50726563 3.485 36.73828125 4.25 C27.74374823 13.28302602 26.35952489 22.85416301 26.37963867 35.06640625 C26.45403 38.56368413 26.45403 38.56368413 27 42 C27.99 42.66 28.98 43.32 30 44 C23.73 44 17.46 44 11 44 C12.32 43.01 13.64 42.02 15 41 C17.28915246 31.24896937 14.60040269 23.79630045 9.55395508 15.54418945 C8.76725988 14.30087983 7.97146484 13.06327441 7.16601562 11.83203125 C5.97258201 9.95692116 4.89740521 8.04186347 3.828125 6.09375 C2.34609695 2.94699621 2.34609695 2.94699621 0 2 C0 1.34 0 0.68 0 0 Z " fill="#084D22" transform="translate(341,256)"/>
<path d="M0 0 C1.50849356 0.81785795 3.01165209 1.64602989 4.5 2.5 C5.16 1.18 5.82 -0.14 6.5 -1.5 C6.5 3.45 6.5 8.4 6.5 13.5 C5.84 13.5 5.18 13.5 4.5 13.5 C4.2525 12.2625 4.005 11.025 3.75 9.75 C2.8086645 5.97798184 1.67358435 3.90423057 -1.5 1.5 C-5.13782632 0.28739123 -7.67735999 0.10455448 -11.5 0.5 C-15.69487731 3.66946286 -17.17782342 6.50124467 -18.5 11.5 C-19.64896858 21.24315888 -19.79130554 31.43569017 -13.5 39.5 C-10.30621918 41.09689041 -6.97478685 40.87348957 -3.5 40.5 C-0.63035483 39.25232819 0.93761602 38.28733758 2.75 35.75 C3.76434758 32.70695726 4.13319111 29.67901042 4.5 26.5 C5.16 26.5 5.82 26.5 6.5 26.5 C6.5 31.78 6.5 37.06 6.5 42.5 C5.84 42.5 5.18 42.5 4.5 42.5 C4.5 41.51 4.5 40.52 4.5 39.5 C3.68208984 39.933125 3.68208984 39.933125 2.84765625 40.375 C-3.7677192 43.63180022 -8.91858026 44.71897267 -16.11328125 42.8046875 C-22.76797294 40.4582925 -26.43508418 37.68841081 -29.6015625 31.265625 C-31.75421937 24.63918559 -31.820132 15.29293348 -28.875 8.875 C-22.34682946 -1.68460218 -10.91911541 -5.42105589 0 0 Z " fill="#094E23" transform="translate(121.5,206.5)"/>
<path d="M0 0 C6.6 0 13.2 0 20 0 C20 0.66 20 1.32 20 2 C18.68 2.33 17.36 2.66 16 3 C15.67 15.87 15.34 28.74 15 42 C24.92826073 41.93118658 24.92826073 41.93118658 28.5 39.4375 C30.56262451 36.08573517 31.75484918 32.73545246 33 29 C33.33 29 33.66 29 34 29 C34 33.95 34 38.9 34 44 C22.78 44 11.56 44 0 44 C1 42 1 42 4 41 C4 28.46 4 15.92 4 3 C2.68 2.67 1.36 2.34 0 2 C0 1.34 0 0.68 0 0 Z " fill="#094D23" transform="translate(209,256)"/>
<path d="M0 0 C6.27 0 12.54 0 19 0 C19 0.66 19 1.32 19 2 C18.01 2.33 17.02 2.66 16 3 C15.9258795 8.35682133 15.87141224 13.71334462 15.83520508 19.07055664 C15.8201124 20.89320067 15.79963605 22.71580836 15.77368164 24.53833008 C15.73731897 27.157155 15.72027876 29.77550007 15.70703125 32.39453125 C15.69154739 33.21025101 15.67606354 34.02597076 15.66011047 34.8664093 C15.62519973 37.42919341 15.62519973 37.42919341 16 41 C16.99 41.99 17.98 42.98 19 44 C12.73 44 6.46 44 0 44 C1 42 1 42 4 41 C4 28.46 4 15.92 4 3 C2.68 2.67 1.36 2.34 0 2 C0 1.34 0 0.68 0 0 Z " fill="#0A4E24" transform="translate(300,205)"/>
<path d="M0 0 C6.27 0 12.54 0 19 0 C19 0.66 19 1.32 19 2 C18.01 2.33 17.02 2.66 16 3 C15.9258795 8.35682133 15.87141224 13.71334462 15.83520508 19.07055664 C15.8201124 20.89320067 15.79963605 22.71580836 15.77368164 24.53833008 C15.73731897 27.157155 15.72027876 29.77550007 15.70703125 32.39453125 C15.69154739 33.21025101 15.67606354 34.02597076 15.66011047 34.8664093 C15.62519973 37.42919341 15.62519973 37.42919341 16 41 C16.99 41.99 17.98 42.98 19 44 C12.73 44 6.46 44 0 44 C1 42 1 42 4 41 C4 28.46 4 15.92 4 3 C2.68 2.67 1.36 2.34 0 2 C0 1.34 0 0.68 0 0 Z " fill="#0A4E24" transform="translate(232,205)"/>
<path d="M0 0 C4.62 0 9.24 0 14 0 C13.67 0.66 13.34 1.32 13 2 C12.84932786 3.4465242 12.75138964 4.8987934 12.68359375 6.3515625 C12.64169922 7.20234375 12.59980469 8.053125 12.55664062 8.9296875 C12.51732422 9.81914062 12.47800781 10.70859375 12.4375 11.625 C12.39431641 12.5221875 12.35113281 13.419375 12.30664062 14.34375 C12.20043139 16.56234283 12.09838806 18.7810488 12 21 C14.31 21 16.62 21 19 21 C18.67 21.66 18.34 22.32 18 23 C16.02 22.67 14.04 22.34 12 22 C12.33 27.94 12.66 33.88 13 40 C14.32 40.66 15.64 41.32 17 42 C17 42.33 17 42.66 17 43 C10.73 43 4.46 43 -2 43 C-1.01 42.01 -0.02 41.02 1 40 C1.27397304 37.08143651 1.37260494 34.38090984 1.328125 31.46484375 C1.32625183 30.63038223 1.32437866 29.79592072 1.32244873 28.93617249 C1.31572972 27.17347209 1.30181814 25.41078656 1.28125 23.64819336 C1.25007907 20.94435838 1.24027731 18.24110626 1.234375 15.53710938 C1.22520554 13.8255137 1.21482995 12.11392397 1.203125 10.40234375 C1.19675018 9.18513893 1.19675018 9.18513893 1.19024658 7.94334412 C1.23580763 3.83932156 1.23580763 3.83932156 0 0 Z " fill="#084C22" transform="translate(264,257)"/>
<path d="M0 0 C1.65 0 3.3 0 5 0 C5.47421387 1.22630127 5.94842773 2.45260254 6.43701172 3.71606445 C8.19638138 8.26289503 9.9605045 12.80786869 11.72607422 17.35229492 C12.48974439 19.31988967 13.25212231 21.28798647 14.01318359 23.2565918 C15.10695966 26.08515089 16.20536121 28.91187542 17.3046875 31.73828125 C17.6443454 32.61962234 17.9840033 33.50096344 18.33395386 34.40901184 C18.65413483 35.22963608 18.9743158 36.05026031 19.30419922 36.89575195 C19.58399628 37.61745071 19.86379333 38.33914948 20.15206909 39.0827179 C21.04924076 41.2588572 21.04924076 41.2588572 23 44 C17.06 44 11.12 44 5 44 C6.32 43.34 7.64 42.68 9 42 C8.80365967 41.44127197 8.60731934 40.88254395 8.4050293 40.30688477 C7.49845098 37.72568074 6.59297046 35.14409285 5.6875 32.5625 C5.37876953 31.68400391 5.07003906 30.80550781 4.75195312 29.90039062 C3.82941029 27.26871581 2.91378658 24.63472663 2 22 C1.70303223 21.15421387 1.40606445 20.30842773 1.10009766 19.43701172 C0.82601074 18.64182129 0.55192383 17.84663086 0.26953125 17.02734375 C0.02436768 16.322146 -0.2207959 15.61694824 -0.47338867 14.89038086 C-1 13 -1 13 -1 10 C-1.66 10 -2.32 10 -3 10 C-2.49287967 6.28111761 -1.88391785 3.26545761 0 0 Z " fill="#084D22" transform="translate(150,205)"/>
<path d="M0 0 C4.29 0 8.58 0 13 0 C12.67 13.86 12.34 27.72 12 42 C8.37 42 4.74 42 1 42 C1.00523682 40.79875488 1.01047363 39.59750977 1.01586914 38.35986328 C1.03393653 33.91325624 1.0454384 29.46665247 1.05493164 25.02001953 C1.05996787 23.09358169 1.06679712 21.16714769 1.07543945 19.24072266 C1.08753608 16.47557632 1.09323533 13.71048042 1.09765625 10.9453125 C1.10281754 10.0806839 1.10797882 9.2160553 1.11329651 8.32522583 C1.24383889 4.02748998 1.24383889 4.02748998 0 0 Z " fill="#094D23" transform="translate(125,257)"/>
<path d="M0 0 C-0.40992188 0.44730469 -0.81984375 0.89460937 -1.2421875 1.35546875 C-1.78101563 1.96003906 -2.31984375 2.56460938 -2.875 3.1875 C-3.40867187 3.77917969 -3.94234375 4.37085938 -4.4921875 4.98046875 C-8.31800777 10.10468916 -8.38700784 15.07736831 -8.375 21.25 C-8.37258301 22.52435913 -8.37258301 22.52435913 -8.37011719 23.82446289 C-8.22044526 31.45406281 -6.83895111 36.76675012 -1.75 42.5625 C-1.1725 43.036875 -0.595 43.51125 0 44 C-4.6853967 44.58567459 -7.26516277 44.22282322 -11.1875 41.5 C-16.5476171 36.98293045 -18.65117185 33.2225077 -19.41015625 26.2109375 C-19.76060483 19.54928554 -19.91815897 13.09503269 -15.62109375 7.6171875 C-6.94173228 -1.04125984 -6.94173228 -1.04125984 0 0 Z " fill="#074C22" transform="translate(385,205)"/>
<path d="M0 0 C3 1 3 1 3.89135742 2.76586914 C4.12701416 3.51473389 4.3626709 4.26359863 4.60546875 5.03515625 C4.99702148 6.24848633 4.99702148 6.24848633 5.39648438 7.48632812 C5.65751953 8.33646484 5.91855469 9.18660156 6.1875 10.0625 C6.46013672 10.91650391 6.73277344 11.77050781 7.01367188 12.65039062 C7.68656855 14.7635223 8.34468212 16.88135093 9 19 C4.38 19.33 -0.24 19.66 -5 20 C-7.10880877 25.99838217 -7.10880877 25.99838217 -7 32 C-5.68 32.99 -4.36 33.98 -3 35 C-6.96 35 -10.92 35 -15 35 C-14.09652832 33.72938721 -14.09652832 33.72938721 -13.17480469 32.43310547 C-10.98654339 29.14469719 -9.58174737 25.77946316 -8.203125 22.0703125 C-7.9646283 21.43511688 -7.72613159 20.79992126 -7.48040771 20.14547729 C-6.72973753 18.14125149 -5.98971857 16.13329009 -5.25 14.125 C-4.7389841 12.75494597 -4.22727166 11.38515153 -3.71484375 10.015625 C-2.46850324 6.68004347 -1.23167474 3.34102896 0 0 Z " fill="#4A7C5D" transform="translate(146,214)"/>
<path d="M0 0 C6.65625 -0.21875 6.65625 -0.21875 9.75 1.75 C13.00483311 6.4514256 13.91020897 11.44472375 15 17 C16.32 17 17.64 17 19 17 C19 17.66 19 18.32 19 19 C15.1783948 20.79840245 12.2177461 21.61508797 8 21 C2.99444674 17.09582037 2.02557495 13.66078579 1.1875 7.6875 C1.06697266 6.94693359 0.94644531 6.20636719 0.82226562 5.44335938 C0.53006804 3.63173435 0.26250104 1.81616571 0 0 Z " fill="#074C21" transform="translate(284,280)"/>
<path d="M0 0 C3.625 0.25 3.625 0.25 5.3203125 1.36328125 C7.23034222 4.1253901 7.09479242 6.36089027 7.125 9.6875 C7.1559375 10.82058594 7.186875 11.95367187 7.21875 13.12109375 C6.625 16.25 6.625 16.25 4.46875 18.66015625 C1.22367196 20.47436884 -0.71545721 20.59042259 -4.375 20.25 C-4.40388514 17.10418577 -4.42175923 13.95840531 -4.4375 10.8125 C-4.44587891 9.91466797 -4.45425781 9.01683594 -4.46289062 8.09179688 C-4.46611328 7.23779297 -4.46933594 6.38378906 -4.47265625 5.50390625 C-4.48051147 4.31776733 -4.48051147 4.31776733 -4.48852539 3.10766602 C-4.28545295 -0.21529788 -3.41992982 0.25332813 0 0 Z " fill="#F9FBFA" transform="translate(280.375,257.75)"/>
<path d="M0 0 C12.54 0 25.08 0 38 0 C38 4.95 38 9.9 38 15 C37.34 15 36.68 15 36 15 C35.81824219 14.38511719 35.63648438 13.77023438 35.44921875 13.13671875 C35.19785156 12.32847656 34.94648438 11.52023438 34.6875 10.6875 C34.44386719 9.88699219 34.20023437 9.08648437 33.94921875 8.26171875 C32.9407195 5.8587514 32.01954927 4.62375821 30 3 C22.76020461 1.05761587 13.9080038 1.03942694 7 4 C4.06042378 7.54776441 3.12625565 11.58161246 2 16 C1.34 16 0.68 16 0 16 C0 10.72 0 5.44 0 0 Z " fill="#58876A" transform="translate(323,205)"/>
<path d="M0 0 C0.66 0 1.32 0 2 0 C2.83739781 2.1234016 3.66980283 4.2487728 4.5 6.375 C4.9640625 7.55835938 5.428125 8.74171875 5.90625 9.9609375 C7 13 7 13 7 15 C3.04 15 -0.92 15 -5 15 C-1.85714286 4.28571429 -1.85714286 4.28571429 0 0 Z " fill="#F3F6F4" transform="translate(147,216)"/>
<path d="M0 0 C0.33 0 0.66 0 1 0 C1 4.95 1 9.9 1 15 C-10.22 15 -21.44 15 -33 15 C-32.67 14.34 -32.34 13.68 -32 13 C-30.54980469 13.01740234 -30.54980469 13.01740234 -29.0703125 13.03515625 C-16.31781763 13.91805 -16.31781763 13.91805 -4.5625 10.4375 C-2.42148392 7.09751492 -1.25499148 3.76497444 0 0 Z " fill="#1E5D36" transform="translate(242,285)"/>
<path d="M0 0 C3.96 0 7.92 0 12 0 C12 0.66 12 1.32 12 2 C11.01 2 10.02 2 9 2 C8.67 15.86 8.34 29.72 8 44 C7.67 44 7.34 44 7 44 C6.34 30.8 5.68 17.6 5 4 C2.525 3.01 2.525 3.01 0 2 C0 1.34 0 0.68 0 0 Z " fill="#457858" transform="translate(284,205)"/>
<path d="M0 0 C0.33 0 0.66 0 1 0 C1 1.98 1 3.96 1 6 C1.66 6.33 2.32 6.66 3 7 C2.97381592 7.86278564 2.94763184 8.72557129 2.9206543 9.61450195 C2.83540182 12.8180525 2.77273732 16.02102496 2.7253418 19.2253418 C2.70020781 20.61160304 2.66609408 21.99773187 2.62280273 23.38354492 C2.56211604 25.37621037 2.53645121 27.36984533 2.51171875 29.36328125 C2.48553467 30.56251221 2.45935059 31.76174316 2.43237305 32.99731445 C2.68610981 36.21274425 2.68610981 36.21274425 5.53051758 37.85229492 C6.34544678 38.2310376 7.16037598 38.60978027 8 39 C8 39.33 8 39.66 8 40 C4.04 40 0.08 40 -4 40 C-4 39.34 -4 38.68 -4 38 C-2.515 37.505 -2.515 37.505 -1 37 C-0.67 24.79 -0.34 12.58 0 0 Z " fill="#477A5B" transform="translate(260,209)"/>
<path d="M0 0 C0.33 0 0.66 0 1 0 C1 4.62 1 9.24 1 14 C-10.22 14 -21.44 14 -33 14 C-32.67 13.34 -32.34 12.68 -32 12 C-30.56720703 12.01740234 -30.56720703 12.01740234 -29.10546875 12.03515625 C-16.0639118 13.08387367 -16.0639118 13.08387367 -4.30859375 9.71875 C-2.85057373 7.80373863 -2.09466405 6.08450033 -1.3125 3.8125 C-0.93544922 2.73935547 -0.93544922 2.73935547 -0.55078125 1.64453125 C-0.36902344 1.10183594 -0.18726563 0.55914062 0 0 Z " fill="#23603A" transform="translate(337,286)"/>
<path d="M0 0 C4.29 0 8.58 0 13 0 C13 0.66 13 1.32 13 2 C11.87851562 3.11181641 11.87851562 3.11181641 10.734375 4.24609375 C1.37297499 13.6743609 0.1054261 24.43151999 -0.02734375 37.1171875 C-0.01832031 38.39851563 -0.00929688 39.67984375 0 41 C-0.33 41 -0.66 41 -1 41 C-2.28229471 29.96060826 -3.12685096 21.62189378 2.65234375 11.76171875 C4.19110994 8.60836312 4.25074725 6.4644059 4 3 C2.68 2.67 1.36 2.34 0 2 C0 1.34 0 0.68 0 0 Z " fill="#4F8062" transform="translate(367,256)"/>
<path d="M0 0 C10.89 0 21.78 0 33 0 C33 4.62 33 9.24 33 14 C32.34 14 31.68 14 31 14 C30.36523438 11.02148438 30.36523438 11.02148438 29.73046875 8.04296875 C28.867151 5.62844905 28.03890553 4.5480579 26 3 C17.89267662 0.83694631 8.34784126 1.90678589 0 2 C0 1.34 0 0.68 0 0 Z " fill="#336C48" transform="translate(170,256)"/>
<path d="M0 0 C10.89 0 21.78 0 33 0 C33 4.29 33 8.58 33 13 C31 12 31 12 30.21875 10.1875 C29.73958333 8.72916667 29.26041667 7.27083333 28.78125 5.8125 C28.14670555 3.80487204 28.14670555 3.80487204 26 3 C17.37304138 1.63784864 8.70787352 1.91002197 0 2 C0 1.34 0 0.68 0 0 Z " fill="#2F6945" transform="translate(304,256)"/>
<path d="M0 0 C0.33 0 0.66 0 1 0 C1 4.95 1 9.9 1 15 C-5.93 15 -12.86 15 -20 15 C-16.80158965 12.86772644 -15.75440904 12.76934532 -12.0625 12.625 C-8.86235375 12.3412661 -7.29892486 12.1916185 -4.5625 10.4375 C-2.42148392 7.09751492 -1.25499148 3.76497444 0 0 Z " fill="#215F38" transform="translate(203,285)"/>
<path d="M0 0 C0.66 0 1.32 0 2 0 C2 5.94 2 11.88 2 18 C1.34 18 0.68 18 0 18 C-0.66 15.69 -1.32 13.38 -2 11 C-4.31 10.67 -6.62 10.34 -9 10 C-9 9.34 -9 8.68 -9 8 C-8.071875 7.79375 -7.14375 7.5875 -6.1875 7.375 C-2.73995905 6.25553808 -2.73995905 6.25553808 -1.125 2.875 C-0.75375 1.92625 -0.3825 0.9775 0 0 Z " fill="#326B47" transform="translate(328,269)"/>
<path d="M0 0 C0.66 0 1.32 0 2 0 C2 5.28 2 10.56 2 16 C1.34 16 0.68 16 0 16 C0 15.01 0 14.02 0 13 C-0.81791016 13.433125 -0.81791016 13.433125 -1.65234375 13.875 C-7.43222369 16.72047936 -11.57567502 17.40789365 -18 17 C-15.33002134 15.55773474 -12.97345011 14.69413694 -10 14.125 C-6.2452676 13.19678548 -4.22117337 12.33176005 -2 9 C-1.1077552 6.03097851 -0.49664628 3.05829551 0 0 Z " fill="#2D6743" transform="translate(126,233)"/>
<path d="M0 0 C3.3 0 6.6 0 10 0 C10 4.62 10 9.24 10 14 C9.34 14 8.68 14 8 14 C7.84144531 13.40832031 7.68289063 12.81664062 7.51953125 12.20703125 C5.91836612 6.78430074 4.34510752 3.64049549 0 0 Z " fill="#105229" transform="translate(351,206)"/>
<path d="M0 0 C0.33 0 0.66 0 1 0 C1 5.94 1 11.88 1 18 C-0.12831894 16.30752159 -1.24359183 14.60561322 -2.3125 12.875 C-4.42473111 10.52807654 -5.92036816 10.33293317 -9 10 C-9 9.34 -9 8.68 -9 8 C-8.071875 7.79375 -7.14375 7.5875 -6.1875 7.375 C-2.73995905 6.25553808 -2.73995905 6.25553808 -1.125 2.875 C-0.75375 1.92625 -0.3825 0.9775 0 0 Z " fill="#16572F" transform="translate(194,269)"/>
<path d="M0 0 C0.33 0 0.66 0 1 0 C1.02505615 0.74685059 1.0501123 1.49370117 1.07592773 2.26318359 C1.19168213 5.63397267 1.31450128 9.00446783 1.4375 12.375 C1.47681641 13.550625 1.51613281 14.72625 1.55664062 15.9375 C1.59853516 17.05898437 1.64042969 18.18046875 1.68359375 19.3359375 C1.72025146 20.37282715 1.75690918 21.4097168 1.79467773 22.47802734 C1.84164223 24.99425166 1.84164223 24.99425166 3 27 C5.02463255 27.65213292 5.02463255 27.65213292 7 28 C7 28.66 7 29.32 7 30 C3.04 30 -0.92 30 -5 30 C-3.68 28.68 -2.36 27.36 -1 26 C-0.36171531 23.11126112 -0.36171531 23.11126112 -0.390625 19.921875 C-0.35839844 18.76171875 -0.32617188 17.6015625 -0.29296875 16.40625 C-0.27878906 15.1996875 -0.26460937 13.993125 -0.25 12.75 C-0.22035156 11.52796875 -0.19070312 10.3059375 -0.16015625 9.046875 C-0.08947598 6.03118356 -0.03676825 3.0162645 0 0 Z " fill="#13552C" transform="translate(180,219)"/>
<path d="M0 0 C3.3 0 6.6 0 10 0 C9.2575 0.45375 8.515 0.9075 7.75 1.375 C3.94895314 5.003272 2.67441099 9.09837229 1 14 C0.67 14 0.34 14 0 14 C0 9.38 0 4.76 0 0 Z " fill="#0A4E24" transform="translate(324,206)"/>
<path d="M0 0 C3.96 1.98 3.96 1.98 8 4 C8.66 2.68 9.32 1.36 10 0 C10 4.95 10 9.9 10 15 C9.34 15 8.68 15 8 15 C7.7525 13.7625 7.505 12.525 7.25 11.25 C5.94761889 6.02200208 3.41981423 3.94654282 -1 1 C-0.67 0.67 -0.34 0.34 0 0 Z " fill="#195931" transform="translate(118,205)"/>
<path d="M0 0 C4.29 0 8.58 0 13 0 C13 0.66 13 1.32 13 2 C11.04072937 3.7143618 9.04119788 5.38405168 7 7 C6.5875 6.360625 6.175 5.72125 5.75 5.0625 C3.82189513 2.79009069 2.88575819 2.39803561 0 2 C0 1.34 0 0.68 0 0 Z " fill="#27633D" transform="translate(367,256)"/>
<path d="M0 0 C0.33 0 0.66 0 1 0 C1.0825 1.093125 1.165 2.18625 1.25 3.3125 C1.66435785 7.44031405 1.66435785 7.44031405 6 10 C2.04 10 -1.92 10 -6 10 C-5.38125 9.0925 -4.7625 8.185 -4.125 7.25 C-2.55610389 4.85051183 -1.19556179 2.59038388 0 0 Z " fill="#14562D" transform="translate(137,239)"/>
<path d="M0 0 C0.66 0 1.32 0 2 0 C2.2475 0.61875 2.495 1.2375 2.75 1.875 C4.20628639 4.35068687 5.37812506 4.95125002 8 6 C8 6.33 8 6.66 8 7 C4.04 7 0.08 7 -4 7 C-4 6.34 -4 5.68 -4 5 C-3.01 4.67 -2.02 4.34 -1 4 C-0.26676204 1.98491642 -0.26676204 1.98491642 0 0 Z " fill="#23603A" transform="translate(260,242)"/>
<path d="M0 0 C3.96 0 7.92 0 12 0 C12 0.66 12 1.32 12 2 C11.01 2 10.02 2 9 2 C8.67 3.32 8.34 4.64 8 6 C7.34 6 6.68 6 6 6 C5.34 5.01 4.68 4.02 4 3 C1.94074861 2.27617533 1.94074861 2.27617533 0 2 C0 1.34 0 0.68 0 0 Z " fill="#2F6945" transform="translate(284,205)"/>
</svg>
